<svg width="336" height="201" viewBox="0 0 336 201" fill="none" xmlns="http://www.w3.org/2000/svg">
<g clip-path="url(#clip0_1_36)">
<rect y="0.5" width="336" height="200" rx="8" fill="#009A7E"/>
<rect x="87.9962" y="77.729" width="139" height="95" transform="rotate(-45 87.9962 77.729)" fill="white"/>
<rect x="54.0551" y="77.729" width="139" height="95" transform="rotate(-45 54.0551 77.729)" fill="#2AF8D2"/>
<rect x="234.864" y="209.036" width="306.228" height="95" transform="rotate(-45 234.864 209.036)" fill="#2AF8D2"/>
<rect x="20.114" y="77.729" width="139" height="95" transform="rotate(-45 20.114 77.729)" fill="#111111"/>
<rect width="204.19" height="270.554" transform="matrix(-0.707107 0.707107 0.707107 0.707107 20.1293 77.7252)" fill="url(#paint0_linear_1_36)"/>
<path d="M6.68958 -357.5L142.273 -221.773C154.754 -209.279 154.754 -189.036 142.273 -176.542L-45.5442 11.4749C-58.025 23.9689 -58.025 44.2117 -45.5442 56.7057L107.088 209.5" stroke="white" stroke-width="5"/>
<path d="M69.965 71.7186V95.0531H93.2995" stroke="white" stroke-width="5"/>
<path d="M136.079 52.2732L136.079 28.9387L112.745 28.9387" stroke="white" stroke-width="5"/>
<path d="M102.846 38.8381V85.5071" stroke="white" stroke-width="5"/>
<path d="M210.364 -37.5L271.237 23.3726C283.734 35.8694 283.734 56.1306 271.237 68.6274L193.492 146.373C180.995 158.869 180.995 179.131 193.492 191.627L263.364 261.5" stroke="white" stroke-width="5"/>
<path d="M253.339 149.574L241.195 161.719L255.451 175.976V188.648H268.124L281.853 202.377L293.998 190.232" stroke="white" stroke-width="5"/>
<path d="M278.685 124.228L266.54 136.373L280.797 150.63V163.303H293.47L307.199 177.032L319.344 164.887" stroke="white" stroke-width="5"/>
<path d="M304.031 98.8826L291.886 111.027L306.143 125.284V137.957H318.816L332.544 151.686L344.689 139.541" stroke="white" stroke-width="5"/>
<path d="M329.376 73.5369L317.232 85.6817L331.488 99.9386V112.611H344.161L357.89 126.34L370.035 114.196" stroke="white" stroke-width="5"/>
<path d="M354.722 48.1913L342.577 60.3361L356.834 74.593V87.2658H369.507L383.236 100.995L395.381 88.8499" stroke="white" stroke-width="5"/>
</g>
<defs>
<linearGradient id="paint0_linear_1_36" x1="102.095" y1="0" x2="102.095" y2="270.554" gradientUnits="userSpaceOnUse">
<stop stop-color="#27FBD5"/>
<stop offset="1" stop-color="#CF6868" stop-opacity="0"/>
</linearGradient>
<clipPath id="clip0_1_36">
<rect y="0.5" width="336" height="200" rx="8" fill="white"/>
</clipPath>
</defs>
</svg>
